<mxfile host="Electron" modified="2024-05-24T09:58:43.624Z" agent="Mozilla/5.0 (X11; Linux x86_64) AppleWebKit/537.36 (KHTML, like Gecko) draw.io/21.6.5 Chrome/114.0.5735.243 Electron/25.3.1 Safari/537.36" etag="-bdBqhc66jAdcs4v2o9F" version="21.6.5" type="device" pages="6">
  <diagram name="context" id="13e1069c-82ec-6db2-03f1-153e76fe0fe0">
    <mxGraphModel dx="1622" dy="1025" grid="1" gridSize="10" guides="1" tooltips="1" connect="1" arrows="1" fold="1" page="1" pageScale="1" pageWidth="1400" pageHeight="850" background="none" math="0" shadow="0">
      <root>
        <mxCell id="0" />
        <mxCell id="1" parent="0" />
        <mxCell id="O7h8wf2D7E4w8HXQOoel-2" style="edgeStyle=none;curved=1;rounded=0;orthogonalLoop=1;jettySize=auto;html=1;exitX=0.5;exitY=1;exitDx=0;exitDy=0;entryX=0.5;entryY=0;entryDx=0;entryDy=0;fontSize=12;startSize=8;endSize=8;dashed=1;strokeWidth=3;" edge="1" parent="1" source="O7h8wf2D7E4w8HXQOoel-3" target="O7h8wf2D7E4w8HXQOoel-8">
          <mxGeometry relative="1" as="geometry" />
        </mxCell>
        <mxCell id="zaoDN__NHZS5ibZmOaoD-20" value="Request&lt;br style=&quot;color: rgb(255, 255, 255);&quot;&gt;&lt;span style=&quot;color: rgb(255, 255, 255);&quot;&gt;[HTTP]&lt;/span&gt;" style="edgeLabel;html=1;align=center;verticalAlign=middle;resizable=0;points=[];fontSize=16;labelBackgroundColor=#18141D;" vertex="1" connectable="0" parent="O7h8wf2D7E4w8HXQOoel-2">
          <mxGeometry x="-0.2411" y="3" relative="1" as="geometry">
            <mxPoint as="offset" />
          </mxGeometry>
        </mxCell>
        <mxCell id="O7h8wf2D7E4w8HXQOoel-3" value="Employee Or Manager&lt;br&gt;[person]&lt;br&gt;An employee posts with the system" style="rounded=1;whiteSpace=wrap;html=1;fontSize=16;fillColor=#001794;fontColor=#ffffff;strokeColor=#00072E;strokeWidth=2;gradientColor=none;" vertex="1" parent="1">
          <mxGeometry x="260" y="106" width="320" height="120" as="geometry" />
        </mxCell>
        <mxCell id="O7h8wf2D7E4w8HXQOoel-4" value="" style="ellipse;whiteSpace=wrap;html=1;fontSize=16;fillColor=#001794;fontColor=#ffffff;strokeColor=#00072E;strokeWidth=2;gradientColor=none;" vertex="1" parent="1">
          <mxGeometry x="370" y="50" width="100" height="80" as="geometry" />
        </mxCell>
        <mxCell id="zaoDN__NHZS5ibZmOaoD-14" style="edgeStyle=none;curved=1;rounded=0;orthogonalLoop=1;jettySize=auto;html=1;exitX=0.25;exitY=1;exitDx=0;exitDy=0;entryX=0.25;entryY=0;entryDx=0;entryDy=0;fontSize=12;startSize=8;endSize=8;dashed=1;strokeWidth=2;" edge="1" parent="1" source="O7h8wf2D7E4w8HXQOoel-8" target="zaoDN__NHZS5ibZmOaoD-6">
          <mxGeometry relative="1" as="geometry" />
        </mxCell>
        <mxCell id="zaoDN__NHZS5ibZmOaoD-19" value="Request&lt;br style=&quot;color: rgb(255, 255, 255);&quot;&gt;&lt;span style=&quot;color: rgb(255, 255, 255);&quot;&gt;[HTTP]&lt;/span&gt;" style="edgeLabel;html=1;align=center;verticalAlign=middle;resizable=0;points=[];fontSize=16;labelBackgroundColor=#18141D;" vertex="1" connectable="0" parent="zaoDN__NHZS5ibZmOaoD-14">
          <mxGeometry x="-0.203" y="-1" relative="1" as="geometry">
            <mxPoint as="offset" />
          </mxGeometry>
        </mxCell>
        <mxCell id="DNuQNQGuxmttYhWPT_Vo-42" style="edgeStyle=none;rounded=1;orthogonalLoop=1;jettySize=auto;html=1;exitX=1;exitY=0.75;exitDx=0;exitDy=0;fontSize=12;startSize=8;endSize=8;entryX=0.5;entryY=0;entryDx=0;entryDy=0;strokeWidth=2;dashed=1;" edge="1" parent="1" source="O7h8wf2D7E4w8HXQOoel-8" target="DNuQNQGuxmttYhWPT_Vo-15">
          <mxGeometry relative="1" as="geometry">
            <mxPoint x="990" y="520" as="targetPoint" />
            <Array as="points">
              <mxPoint x="1095" y="530" />
            </Array>
          </mxGeometry>
        </mxCell>
        <mxCell id="DNuQNQGuxmttYhWPT_Vo-44" value="Request&lt;br style=&quot;color: rgb(255, 255, 255); background-color: rgb(42, 37, 47);&quot;&gt;[HTTP]" style="edgeLabel;html=1;align=center;verticalAlign=middle;resizable=0;points=[];fontSize=16;" vertex="1" connectable="0" parent="DNuQNQGuxmttYhWPT_Vo-42">
          <mxGeometry x="0.137" relative="1" as="geometry">
            <mxPoint as="offset" />
          </mxGeometry>
        </mxCell>
        <mxCell id="ASl6VW__by9De6SChvL4-2" style="edgeStyle=none;curved=1;rounded=0;orthogonalLoop=1;jettySize=auto;html=1;exitX=0.75;exitY=1;exitDx=0;exitDy=0;entryX=0.75;entryY=0;entryDx=0;entryDy=0;fontSize=12;startSize=8;endSize=8;strokeWidth=2;dashed=1;" edge="1" parent="1" source="O7h8wf2D7E4w8HXQOoel-8" target="ASl6VW__by9De6SChvL4-1">
          <mxGeometry relative="1" as="geometry" />
        </mxCell>
        <mxCell id="ASl6VW__by9De6SChvL4-3" value="&lt;font color=&quot;#ffffff&quot;&gt;&lt;span style=&quot;font-family: Helvetica; font-size: 16px; font-style: normal; font-variant-ligatures: normal; font-variant-caps: normal; font-weight: 400; letter-spacing: normal; orphans: 2; text-align: center; text-indent: 0px; text-transform: none; widows: 2; word-spacing: 0px; -webkit-text-stroke-width: 0px; text-decoration-thickness: initial; text-decoration-style: initial; text-decoration-color: initial; float: none; display: inline !important;&quot;&gt;Request&lt;/span&gt;&lt;br style=&quot;border-color: rgb(0, 0, 0); font-family: Helvetica; font-size: 16px; font-style: normal; font-variant-ligatures: normal; font-variant-caps: normal; font-weight: 400; letter-spacing: normal; orphans: 2; text-align: center; text-indent: 0px; text-transform: none; widows: 2; word-spacing: 0px; -webkit-text-stroke-width: 0px; text-decoration-thickness: initial; text-decoration-style: initial; text-decoration-color: initial;&quot;&gt;&lt;span style=&quot;border-color: rgb(0, 0, 0); font-family: Helvetica; font-size: 16px; font-style: normal; font-variant-ligatures: normal; font-variant-caps: normal; font-weight: 400; letter-spacing: normal; orphans: 2; text-align: center; text-indent: 0px; text-transform: none; widows: 2; word-spacing: 0px; -webkit-text-stroke-width: 0px; text-decoration-thickness: initial; text-decoration-style: initial; text-decoration-color: initial;&quot;&gt;[HTTP]&lt;/span&gt;&lt;/font&gt;" style="edgeLabel;html=1;align=center;verticalAlign=middle;resizable=0;points=[];fontSize=16;" vertex="1" connectable="0" parent="ASl6VW__by9De6SChvL4-2">
          <mxGeometry x="-0.1862" y="-3" relative="1" as="geometry">
            <mxPoint as="offset" />
          </mxGeometry>
        </mxCell>
        <mxCell id="ASl6VW__by9De6SChvL4-5" style="edgeStyle=none;curved=1;rounded=0;orthogonalLoop=1;jettySize=auto;html=1;exitX=1;exitY=1;exitDx=0;exitDy=0;entryX=0;entryY=0;entryDx=0;entryDy=0;fontSize=12;startSize=8;endSize=8;dashed=1;strokeWidth=2;" edge="1" parent="1" source="O7h8wf2D7E4w8HXQOoel-8" target="DNuQNQGuxmttYhWPT_Vo-14">
          <mxGeometry relative="1" as="geometry" />
        </mxCell>
        <mxCell id="ASl6VW__by9De6SChvL4-6" value="Request&lt;br&gt;[STMP]" style="edgeLabel;html=1;align=center;verticalAlign=middle;resizable=0;points=[];fontSize=16;" vertex="1" connectable="0" parent="ASl6VW__by9De6SChvL4-5">
          <mxGeometry x="-0.2806" y="-1" relative="1" as="geometry">
            <mxPoint x="11" y="12" as="offset" />
          </mxGeometry>
        </mxCell>
        <mxCell id="O7h8wf2D7E4w8HXQOoel-8" value="ERP System&lt;br&gt;[Software System]&lt;br&gt;Company affairs management system" style="rounded=0;whiteSpace=wrap;html=1;fontSize=16;fillColor=#0050ef;fontColor=#ffffff;strokeColor=#001DBC;" vertex="1" parent="1">
          <mxGeometry x="270" y="440" width="300" height="110" as="geometry" />
        </mxCell>
        <mxCell id="zaoDN__NHZS5ibZmOaoD-6" value="&lt;font color=&quot;#000000&quot;&gt;Shipping and delivery systems&lt;br&gt;[Software System]&lt;/font&gt;" style="rounded=0;whiteSpace=wrap;html=1;fontSize=16;fillColor=#999999;strokeColor=#000000;" vertex="1" parent="1">
          <mxGeometry x="60" y="680" width="280" height="110" as="geometry" />
        </mxCell>
        <mxCell id="DNuQNQGuxmttYhWPT_Vo-16" style="edgeStyle=none;rounded=1;orthogonalLoop=1;jettySize=auto;html=1;exitX=0.688;exitY=1;exitDx=0;exitDy=0;entryX=0.75;entryY=0;entryDx=0;entryDy=0;fontSize=12;startSize=8;endSize=8;exitPerimeter=0;strokeWidth=2;dashed=1;" edge="1" parent="1" source="zaoDN__NHZS5ibZmOaoD-7" target="DNuQNQGuxmttYhWPT_Vo-15">
          <mxGeometry relative="1" as="geometry">
            <Array as="points" />
          </mxGeometry>
        </mxCell>
        <mxCell id="DNuQNQGuxmttYhWPT_Vo-41" value="React&lt;br&gt;With Bot" style="edgeLabel;html=1;align=center;verticalAlign=middle;resizable=0;points=[];fontSize=16;" vertex="1" connectable="0" parent="DNuQNQGuxmttYhWPT_Vo-16">
          <mxGeometry x="-0.1979" y="3" relative="1" as="geometry">
            <mxPoint as="offset" />
          </mxGeometry>
        </mxCell>
        <mxCell id="zaoDN__NHZS5ibZmOaoD-7" value="Client&lt;br&gt;[person]&lt;br&gt;A user from outside the company" style="rounded=1;whiteSpace=wrap;html=1;fontSize=16;fillColor=#001794;fontColor=#ffffff;strokeColor=#00072E;strokeWidth=2;gradientColor=none;" vertex="1" parent="1">
          <mxGeometry x="930" y="106" width="320" height="120" as="geometry" />
        </mxCell>
        <mxCell id="zaoDN__NHZS5ibZmOaoD-8" value="" style="ellipse;whiteSpace=wrap;html=1;fontSize=16;fillColor=#001794;fontColor=#ffffff;strokeColor=#00072E;strokeWidth=2;gradientColor=none;" vertex="1" parent="1">
          <mxGeometry x="1040" y="50" width="100" height="80" as="geometry" />
        </mxCell>
        <mxCell id="DNuQNQGuxmttYhWPT_Vo-5" style="edgeStyle=none;curved=1;rounded=0;orthogonalLoop=1;jettySize=auto;html=1;exitX=0.25;exitY=0;exitDx=0;exitDy=0;fontSize=12;startSize=8;endSize=8;entryX=0.75;entryY=1;entryDx=0;entryDy=0;strokeWidth=2;dashed=1;" edge="1" parent="1" source="DNuQNQGuxmttYhWPT_Vo-1" target="O7h8wf2D7E4w8HXQOoel-3">
          <mxGeometry relative="1" as="geometry">
            <mxPoint x="600" y="240" as="targetPoint" />
          </mxGeometry>
        </mxCell>
        <mxCell id="DNuQNQGuxmttYhWPT_Vo-10" value="Send&lt;br&gt;Notification" style="edgeLabel;html=1;align=center;verticalAlign=middle;resizable=0;points=[];fontSize=16;" vertex="1" connectable="0" parent="DNuQNQGuxmttYhWPT_Vo-5">
          <mxGeometry x="0.0845" relative="1" as="geometry">
            <mxPoint as="offset" />
          </mxGeometry>
        </mxCell>
        <mxCell id="DNuQNQGuxmttYhWPT_Vo-7" style="edgeStyle=none;curved=1;rounded=0;orthogonalLoop=1;jettySize=auto;html=1;exitX=0.75;exitY=0;exitDx=0;exitDy=0;entryX=0.25;entryY=1;entryDx=0;entryDy=0;fontSize=12;startSize=8;endSize=8;strokeWidth=2;dashed=1;" edge="1" parent="1" source="DNuQNQGuxmttYhWPT_Vo-1" target="zaoDN__NHZS5ibZmOaoD-7">
          <mxGeometry relative="1" as="geometry" />
        </mxCell>
        <mxCell id="DNuQNQGuxmttYhWPT_Vo-11" value="Send&lt;br&gt;Notification" style="edgeLabel;html=1;align=center;verticalAlign=middle;resizable=0;points=[];fontSize=16;" vertex="1" connectable="0" parent="DNuQNQGuxmttYhWPT_Vo-7">
          <mxGeometry x="-0.0283" y="1" relative="1" as="geometry">
            <mxPoint as="offset" />
          </mxGeometry>
        </mxCell>
        <mxCell id="DNuQNQGuxmttYhWPT_Vo-1" value="&lt;font color=&quot;#000000&quot;&gt;Notifications&lt;br&gt;&lt;font style=&quot;font-size: 12px;&quot;&gt;This element is defined as step to avoid repeating the action&lt;/font&gt;&lt;br&gt;&lt;/font&gt;" style="rounded=1;whiteSpace=wrap;html=1;fontSize=16;fillColor=#f8cecc;strokeColor=#b85450;imageAspect=1;shadow=0;glass=0;arcSize=17;" vertex="1" parent="1">
          <mxGeometry x="690" y="310" width="180" height="90" as="geometry" />
        </mxCell>
        <mxCell id="DNuQNQGuxmttYhWPT_Vo-35" style="edgeStyle=none;curved=1;rounded=0;orthogonalLoop=1;jettySize=auto;html=1;exitX=0.25;exitY=0;exitDx=0;exitDy=0;entryX=0.25;entryY=1;entryDx=0;entryDy=0;fontSize=12;startSize=8;endSize=8;strokeWidth=2;dashed=1;" edge="1" parent="1" source="DNuQNQGuxmttYhWPT_Vo-14" target="DNuQNQGuxmttYhWPT_Vo-1">
          <mxGeometry relative="1" as="geometry" />
        </mxCell>
        <mxCell id="DNuQNQGuxmttYhWPT_Vo-36" value="Request&lt;br&gt;[STMP]" style="edgeLabel;html=1;align=center;verticalAlign=middle;resizable=0;points=[];fontSize=16;" vertex="1" connectable="0" parent="DNuQNQGuxmttYhWPT_Vo-35">
          <mxGeometry x="-0.3584" relative="1" as="geometry">
            <mxPoint as="offset" />
          </mxGeometry>
        </mxCell>
        <mxCell id="DNuQNQGuxmttYhWPT_Vo-14" value="&lt;font color=&quot;#000000&quot;&gt;Email Notifications&lt;br&gt;[Software System]&lt;/font&gt;" style="rounded=0;whiteSpace=wrap;html=1;fontSize=16;fillColor=#999999;strokeColor=#000000;" vertex="1" parent="1">
          <mxGeometry x="680" y="680" width="215" height="110" as="geometry" />
        </mxCell>
        <mxCell id="DNuQNQGuxmttYhWPT_Vo-17" style="edgeStyle=none;rounded=1;orthogonalLoop=1;jettySize=auto;html=1;exitX=0.25;exitY=0;exitDx=0;exitDy=0;entryX=1;entryY=0.75;entryDx=0;entryDy=0;fontSize=12;startSize=8;endSize=8;strokeWidth=2;dashed=1;" edge="1" parent="1" source="DNuQNQGuxmttYhWPT_Vo-15" target="DNuQNQGuxmttYhWPT_Vo-1">
          <mxGeometry relative="1" as="geometry">
            <Array as="points">
              <mxPoint x="1040" y="380" />
            </Array>
          </mxGeometry>
        </mxCell>
        <mxCell id="DNuQNQGuxmttYhWPT_Vo-38" value="Message&lt;br&gt;in Telegram" style="edgeLabel;html=1;align=center;verticalAlign=middle;resizable=0;points=[];fontSize=16;" vertex="1" connectable="0" parent="DNuQNQGuxmttYhWPT_Vo-17">
          <mxGeometry x="0.0737" y="4" relative="1" as="geometry">
            <mxPoint x="1" as="offset" />
          </mxGeometry>
        </mxCell>
        <mxCell id="DNuQNQGuxmttYhWPT_Vo-19" style="edgeStyle=none;rounded=1;orthogonalLoop=1;jettySize=auto;html=1;exitX=0.005;exitY=0.368;exitDx=0;exitDy=0;fontSize=12;startSize=8;endSize=8;strokeWidth=2;dashed=1;exitPerimeter=0;entryX=1.007;entryY=0.359;entryDx=0;entryDy=0;entryPerimeter=0;" edge="1" parent="1" source="DNuQNQGuxmttYhWPT_Vo-15" target="O7h8wf2D7E4w8HXQOoel-8">
          <mxGeometry relative="1" as="geometry">
            <mxPoint x="985" y="480" as="sourcePoint" />
            <mxPoint x="570" y="480" as="targetPoint" />
            <Array as="points">
              <mxPoint x="920" y="720" />
              <mxPoint x="920" y="640" />
              <mxPoint x="810" y="640" />
              <mxPoint x="810" y="479" />
            </Array>
          </mxGeometry>
        </mxCell>
        <mxCell id="DNuQNQGuxmttYhWPT_Vo-20" value="Request&lt;br style=&quot;color: rgb(255, 255, 255); background-color: rgb(42, 37, 47);&quot;&gt;[HTTP]" style="edgeLabel;html=1;align=center;verticalAlign=middle;resizable=0;points=[];fontSize=16;" vertex="1" connectable="0" parent="DNuQNQGuxmttYhWPT_Vo-19">
          <mxGeometry x="0.006" y="5" relative="1" as="geometry">
            <mxPoint as="offset" />
          </mxGeometry>
        </mxCell>
        <mxCell id="DNuQNQGuxmttYhWPT_Vo-15" value="&lt;font color=&quot;#000000&quot;&gt;Telegram&lt;br&gt;[Software System]&lt;/font&gt;" style="rounded=0;whiteSpace=wrap;html=1;fontSize=16;fillColor=#999999;strokeColor=#000000;" vertex="1" parent="1">
          <mxGeometry x="990" y="680" width="210" height="110" as="geometry" />
        </mxCell>
        <mxCell id="ASl6VW__by9De6SChvL4-1" value="&lt;font color=&quot;#000000&quot;&gt;OpenAI&lt;br&gt;[Software System]&lt;/font&gt;" style="rounded=0;whiteSpace=wrap;html=1;fontSize=16;fillColor=#999999;strokeColor=#000000;" vertex="1" parent="1">
          <mxGeometry x="380" y="680" width="215" height="110" as="geometry" />
        </mxCell>
      </root>
    </mxGraphModel>
  </diagram>
  <diagram id="XTgjFW_T5vV3UaNy6MSC" name="container">
    <mxGraphModel dx="1274" dy="806" grid="1" gridSize="10" guides="1" tooltips="1" connect="1" arrows="1" fold="1" page="1" pageScale="1" pageWidth="1100" pageHeight="850" background="none" math="0" shadow="0">
      <root>
        <mxCell id="0" />
        <mxCell id="1" parent="0" />
        <mxCell id="HNVPtGDxqGtrr4bKAkJc-1" style="edgeStyle=none;curved=1;rounded=0;orthogonalLoop=1;jettySize=auto;html=1;exitX=0.25;exitY=1;exitDx=0;exitDy=0;entryX=1;entryY=0;entryDx=0;entryDy=0;fontSize=12;startSize=8;endSize=8;" parent="1" source="HNVPtGDxqGtrr4bKAkJc-3" target="HNVPtGDxqGtrr4bKAkJc-6" edge="1">
          <mxGeometry relative="1" as="geometry" />
        </mxCell>
        <mxCell id="HNVPtGDxqGtrr4bKAkJc-2" style="edgeStyle=none;curved=1;rounded=0;orthogonalLoop=1;jettySize=auto;html=1;exitX=0.5;exitY=1;exitDx=0;exitDy=0;entryX=0.5;entryY=0;entryDx=0;entryDy=0;fontSize=12;startSize=8;endSize=8;" parent="1" source="HNVPtGDxqGtrr4bKAkJc-3" target="HNVPtGDxqGtrr4bKAkJc-8" edge="1">
          <mxGeometry relative="1" as="geometry" />
        </mxCell>
        <mxCell id="HNVPtGDxqGtrr4bKAkJc-3" value="person" style="rounded=1;whiteSpace=wrap;html=1;fontSize=16;fillColor=#0050ef;fontColor=#ffffff;strokeColor=#001DBC;strokeWidth=2;" parent="1" vertex="1">
          <mxGeometry x="500" y="90" width="120" height="60" as="geometry" />
        </mxCell>
        <mxCell id="HNVPtGDxqGtrr4bKAkJc-4" value="" style="ellipse;whiteSpace=wrap;html=1;fontSize=16;fillColor=#0050ef;fontColor=#ffffff;strokeColor=#001DBC;strokeWidth=2;" parent="1" vertex="1">
          <mxGeometry x="522.5" y="50" width="75" height="50" as="geometry" />
        </mxCell>
        <mxCell id="HNVPtGDxqGtrr4bKAkJc-5" style="edgeStyle=none;rounded=1;orthogonalLoop=1;jettySize=auto;html=1;exitX=0.75;exitY=1;exitDx=0;exitDy=0;entryX=-0.034;entryY=0.147;entryDx=0;entryDy=0;fontSize=12;startSize=8;endSize=8;entryPerimeter=0;" parent="1" source="HNVPtGDxqGtrr4bKAkJc-6" target="HNVPtGDxqGtrr4bKAkJc-11" edge="1">
          <mxGeometry relative="1" as="geometry">
            <Array as="points">
              <mxPoint x="410" y="392" />
            </Array>
          </mxGeometry>
        </mxCell>
        <mxCell id="HNVPtGDxqGtrr4bKAkJc-6" value="Single Page&lt;br&gt;[Nextjs -&amp;gt; React]" style="rounded=0;whiteSpace=wrap;html=1;fontSize=16;fillColor=#1ba1e2;fontColor=#ffffff;strokeColor=#006EAF;" parent="1" vertex="1">
          <mxGeometry x="300" y="220" width="150" height="80" as="geometry" />
        </mxCell>
        <mxCell id="HNVPtGDxqGtrr4bKAkJc-7" style="edgeStyle=none;rounded=1;orthogonalLoop=1;jettySize=auto;html=1;exitX=0.75;exitY=1;exitDx=0;exitDy=0;fontSize=12;startSize=8;endSize=8;entryX=0.75;entryY=0;entryDx=0;entryDy=0;" parent="1" source="HNVPtGDxqGtrr4bKAkJc-8" target="HNVPtGDxqGtrr4bKAkJc-11" edge="1">
          <mxGeometry relative="1" as="geometry">
            <mxPoint x="740" y="299.7777777777777" as="targetPoint" />
            <Array as="points" />
          </mxGeometry>
        </mxCell>
        <mxCell id="HNVPtGDxqGtrr4bKAkJc-8" value="Desktop&lt;br&gt;[Nextron]" style="rounded=0;whiteSpace=wrap;html=1;fontSize=16;fillColor=#1ba1e2;fontColor=#ffffff;strokeColor=#006EAF;" parent="1" vertex="1">
          <mxGeometry x="522.5" y="220" width="150" height="80" as="geometry" />
        </mxCell>
        <mxCell id="HNVPtGDxqGtrr4bKAkJc-9" value="API" style="rounded=0;whiteSpace=wrap;html=1;fontSize=16;fillColor=#1ba1e2;fontColor=#ffffff;strokeColor=#006EAF;" parent="1" vertex="1">
          <mxGeometry x="522.5" y="560" width="150" height="80" as="geometry" />
        </mxCell>
        <mxCell id="HNVPtGDxqGtrr4bKAkJc-10" style="edgeStyle=none;curved=1;rounded=0;orthogonalLoop=1;jettySize=auto;html=1;exitX=0.75;exitY=1;exitDx=0;exitDy=0;entryX=0.75;entryY=0;entryDx=0;entryDy=0;fontSize=12;startSize=8;endSize=8;" parent="1" source="HNVPtGDxqGtrr4bKAkJc-11" target="HNVPtGDxqGtrr4bKAkJc-9" edge="1">
          <mxGeometry relative="1" as="geometry" />
        </mxCell>
        <mxCell id="HNVPtGDxqGtrr4bKAkJc-11" value="nginx" style="rounded=0;whiteSpace=wrap;html=1;fontSize=16;fillColor=#1ba1e2;fontColor=#ffffff;strokeColor=#006EAF;" parent="1" vertex="1">
          <mxGeometry x="520" y="380" width="150" height="80" as="geometry" />
        </mxCell>
      </root>
    </mxGraphModel>
  </diagram>
  <diagram id="m0Idw6M6Qm07vLoSHlxR" name="components">
    <mxGraphModel dx="892" dy="564" grid="1" gridSize="10" guides="1" tooltips="1" connect="1" arrows="1" fold="1" page="1" pageScale="1" pageWidth="1100" pageHeight="850" math="0" shadow="0">
      <root>
        <mxCell id="0" />
        <mxCell id="1" parent="0" />
      </root>
    </mxGraphModel>
  </diagram>
  <diagram id="sp9zrTHR5C0h7Ccq4cC4" name="Code">
    <mxGraphModel dx="892" dy="564" grid="1" gridSize="10" guides="1" tooltips="1" connect="1" arrows="1" fold="1" page="1" pageScale="1" pageWidth="1100" pageHeight="850" math="0" shadow="0">
      <root>
        <mxCell id="0" />
        <mxCell id="1" parent="0" />
      </root>
    </mxGraphModel>
  </diagram>
  <diagram id="m8nBPiBQlmUt0e2kAN2t" name="ERD">
    <mxGraphModel dx="415" dy="262" grid="1" gridSize="10" guides="1" tooltips="1" connect="1" arrows="1" fold="1" page="1" pageScale="1" pageWidth="1100" pageHeight="850" math="0" shadow="0">
      <root>
        <mxCell id="0" />
        <mxCell id="1" parent="0" />
        <mxCell id="pV6TMRa5KU2QEXjMv6IC-1" value="" style="edgeStyle=none;rounded=1;orthogonalLoop=1;jettySize=auto;html=1;fontSize=12;startSize=8;endSize=8;endArrow=ERmany;endFill=0;startArrow=ERone;startFill=0;labelBackgroundColor=none;fontColor=default;exitX=1;exitY=0.5;exitDx=0;exitDy=0;entryX=0;entryY=0.5;entryDx=0;entryDy=0;strokeWidth=2;" parent="1" source="pV6TMRa5KU2QEXjMv6IC-26" target="pV6TMRa5KU2QEXjMv6IC-51" edge="1">
          <mxGeometry x="0.0072" y="9" relative="1" as="geometry">
            <mxPoint x="510" y="570" as="sourcePoint" />
            <mxPoint x="600" y="270" as="targetPoint" />
            <Array as="points">
              <mxPoint x="1100" y="615" />
              <mxPoint x="1100" y="665" />
            </Array>
            <mxPoint as="offset" />
          </mxGeometry>
        </mxCell>
        <mxCell id="pV6TMRa5KU2QEXjMv6IC-2" style="edgeStyle=none;rounded=1;orthogonalLoop=1;jettySize=auto;html=1;fontSize=12;startSize=8;endSize=8;startArrow=ERmany;startFill=0;endArrow=ERmany;endFill=0;entryX=0;entryY=0.5;entryDx=0;entryDy=0;labelBackgroundColor=none;fontColor=default;exitX=1;exitY=0.5;exitDx=0;exitDy=0;strokeWidth=2;" parent="1" source="pV6TMRa5KU2QEXjMv6IC-4" target="pV6TMRa5KU2QEXjMv6IC-29" edge="1">
          <mxGeometry relative="1" as="geometry">
            <mxPoint x="190" y="550" as="sourcePoint" />
            <mxPoint x="470" y="570" as="targetPoint" />
            <Array as="points">
              <mxPoint x="370" y="620" />
              <mxPoint x="370" y="645" />
            </Array>
          </mxGeometry>
        </mxCell>
        <mxCell id="pV6TMRa5KU2QEXjMv6IC-3" value="User" style="shape=table;startSize=30;container=1;collapsible=0;childLayout=tableLayout;fixedRows=1;rowLines=1;fontStyle=1;strokeColor=#000000;fontSize=18;fillColor=#a20025;fontColor=#ffffff;" parent="1" vertex="1">
          <mxGeometry x="60" y="570" width="210" height="240" as="geometry" />
        </mxCell>
        <mxCell id="pV6TMRa5KU2QEXjMv6IC-4" value="" style="shape=tableRow;horizontal=0;startSize=0;swimlaneHead=0;swimlaneBody=0;top=0;left=0;bottom=0;right=0;collapsible=0;dropTarget=0;fillColor=none;points=[[0,0.5],[1,0.5]];portConstraint=eastwest;strokeColor=inherit;fontSize=16;" parent="pV6TMRa5KU2QEXjMv6IC-3" vertex="1">
          <mxGeometry y="30" width="210" height="30" as="geometry" />
        </mxCell>
        <mxCell id="pV6TMRa5KU2QEXjMv6IC-5" value="&lt;font style=&quot;font-size: 15px;&quot;&gt;Primary Key&lt;/font&gt;" style="shape=partialRectangle;html=1;whiteSpace=wrap;connectable=0;fillColor=#f5f5f5;top=1;left=1;bottom=1;right=1;overflow=hidden;pointerEvents=1;strokeColor=#000000;fontSize=15;fontColor=#000000;perimeterSpacing=1;" parent="pV6TMRa5KU2QEXjMv6IC-4" vertex="1">
          <mxGeometry width="105" height="30" as="geometry">
            <mxRectangle width="105" height="30" as="alternateBounds" />
          </mxGeometry>
        </mxCell>
        <mxCell id="pV6TMRa5KU2QEXjMv6IC-6" value="id" style="shape=partialRectangle;html=1;whiteSpace=wrap;connectable=0;fillColor=#f5f5f5;top=1;left=1;bottom=1;right=1;align=left;spacingLeft=6;overflow=hidden;strokeColor=#000000;fontSize=15;fontColor=#000000;perimeterSpacing=1;" parent="pV6TMRa5KU2QEXjMv6IC-4" vertex="1">
          <mxGeometry x="105" width="105" height="30" as="geometry">
            <mxRectangle width="105" height="30" as="alternateBounds" />
          </mxGeometry>
        </mxCell>
        <mxCell id="pV6TMRa5KU2QEXjMv6IC-7" value="" style="shape=tableRow;horizontal=0;startSize=0;swimlaneHead=0;swimlaneBody=0;top=0;left=0;bottom=0;right=0;collapsible=0;dropTarget=0;fillColor=none;points=[[0,0.5],[1,0.5]];portConstraint=eastwest;strokeColor=inherit;fontSize=16;" parent="pV6TMRa5KU2QEXjMv6IC-3" vertex="1">
          <mxGeometry y="60" width="210" height="30" as="geometry" />
        </mxCell>
        <mxCell id="pV6TMRa5KU2QEXjMv6IC-8" value="String" style="shape=partialRectangle;html=1;whiteSpace=wrap;connectable=0;fillColor=#f5f5f5;top=1;left=1;bottom=1;right=1;overflow=hidden;strokeColor=#000000;fontSize=15;fontColor=#000000;perimeterSpacing=1;" parent="pV6TMRa5KU2QEXjMv6IC-7" vertex="1">
          <mxGeometry width="105" height="30" as="geometry">
            <mxRectangle width="105" height="30" as="alternateBounds" />
          </mxGeometry>
        </mxCell>
        <mxCell id="pV6TMRa5KU2QEXjMv6IC-9" value="username" style="shape=partialRectangle;html=1;whiteSpace=wrap;connectable=0;fillColor=#f5f5f5;top=1;left=1;bottom=1;right=1;align=left;spacingLeft=6;overflow=hidden;strokeColor=#000000;fontSize=15;fontColor=#000000;perimeterSpacing=1;" parent="pV6TMRa5KU2QEXjMv6IC-7" vertex="1">
          <mxGeometry x="105" width="105" height="30" as="geometry">
            <mxRectangle width="105" height="30" as="alternateBounds" />
          </mxGeometry>
        </mxCell>
        <mxCell id="pV6TMRa5KU2QEXjMv6IC-10" value="" style="shape=tableRow;horizontal=0;startSize=0;swimlaneHead=0;swimlaneBody=0;top=0;left=0;bottom=0;right=0;collapsible=0;dropTarget=0;fillColor=none;points=[[0,0.5],[1,0.5]];portConstraint=eastwest;strokeColor=inherit;fontSize=16;" parent="pV6TMRa5KU2QEXjMv6IC-3" vertex="1">
          <mxGeometry y="90" width="210" height="30" as="geometry" />
        </mxCell>
        <mxCell id="pV6TMRa5KU2QEXjMv6IC-11" value="String" style="shape=partialRectangle;html=1;whiteSpace=wrap;connectable=0;fillColor=#f5f5f5;top=1;left=1;bottom=1;right=1;overflow=hidden;strokeColor=#000000;fontSize=15;fontColor=#000000;perimeterSpacing=1;" parent="pV6TMRa5KU2QEXjMv6IC-10" vertex="1">
          <mxGeometry width="105" height="30" as="geometry">
            <mxRectangle width="105" height="30" as="alternateBounds" />
          </mxGeometry>
        </mxCell>
        <mxCell id="pV6TMRa5KU2QEXjMv6IC-12" value="first_name" style="shape=partialRectangle;html=1;whiteSpace=wrap;connectable=0;fillColor=#f5f5f5;top=1;left=1;bottom=1;right=1;align=left;spacingLeft=6;overflow=hidden;strokeColor=#000000;fontSize=15;fontColor=#000000;perimeterSpacing=1;" parent="pV6TMRa5KU2QEXjMv6IC-10" vertex="1">
          <mxGeometry x="105" width="105" height="30" as="geometry">
            <mxRectangle width="105" height="30" as="alternateBounds" />
          </mxGeometry>
        </mxCell>
        <mxCell id="pV6TMRa5KU2QEXjMv6IC-13" value="" style="shape=tableRow;horizontal=0;startSize=0;swimlaneHead=0;swimlaneBody=0;top=0;left=0;bottom=0;right=0;collapsible=0;dropTarget=0;fillColor=none;points=[[0,0.5],[1,0.5]];portConstraint=eastwest;strokeColor=inherit;fontSize=16;" parent="pV6TMRa5KU2QEXjMv6IC-3" vertex="1">
          <mxGeometry y="120" width="210" height="30" as="geometry" />
        </mxCell>
        <mxCell id="pV6TMRa5KU2QEXjMv6IC-14" value="String" style="shape=partialRectangle;html=1;whiteSpace=wrap;connectable=0;fillColor=#f5f5f5;top=1;left=1;bottom=1;right=1;overflow=hidden;strokeColor=#000000;fontSize=15;fontColor=#000000;perimeterSpacing=1;" parent="pV6TMRa5KU2QEXjMv6IC-13" vertex="1">
          <mxGeometry width="105" height="30" as="geometry">
            <mxRectangle width="105" height="30" as="alternateBounds" />
          </mxGeometry>
        </mxCell>
        <mxCell id="pV6TMRa5KU2QEXjMv6IC-15" value="last_name" style="shape=partialRectangle;html=1;whiteSpace=wrap;connectable=0;fillColor=#f5f5f5;top=1;left=1;bottom=1;right=1;align=left;spacingLeft=6;overflow=hidden;strokeColor=#000000;fontSize=15;fontColor=#000000;perimeterSpacing=1;" parent="pV6TMRa5KU2QEXjMv6IC-13" vertex="1">
          <mxGeometry x="105" width="105" height="30" as="geometry">
            <mxRectangle width="105" height="30" as="alternateBounds" />
          </mxGeometry>
        </mxCell>
        <mxCell id="pV6TMRa5KU2QEXjMv6IC-16" value="" style="shape=tableRow;horizontal=0;startSize=0;swimlaneHead=0;swimlaneBody=0;top=0;left=0;bottom=0;right=0;collapsible=0;dropTarget=0;fillColor=none;points=[[0,0.5],[1,0.5]];portConstraint=eastwest;strokeColor=inherit;fontSize=16;" parent="pV6TMRa5KU2QEXjMv6IC-3" vertex="1">
          <mxGeometry y="150" width="210" height="30" as="geometry" />
        </mxCell>
        <mxCell id="pV6TMRa5KU2QEXjMv6IC-17" value="EmailField" style="shape=partialRectangle;html=1;whiteSpace=wrap;connectable=0;fillColor=#f5f5f5;top=1;left=1;bottom=1;right=1;overflow=hidden;strokeColor=#000000;fontSize=15;fontColor=#000000;perimeterSpacing=1;" parent="pV6TMRa5KU2QEXjMv6IC-16" vertex="1">
          <mxGeometry width="105" height="30" as="geometry">
            <mxRectangle width="105" height="30" as="alternateBounds" />
          </mxGeometry>
        </mxCell>
        <mxCell id="pV6TMRa5KU2QEXjMv6IC-18" value="email" style="shape=partialRectangle;html=1;whiteSpace=wrap;connectable=0;fillColor=#f5f5f5;top=1;left=1;bottom=1;right=1;align=left;spacingLeft=6;overflow=hidden;strokeColor=#000000;fontSize=15;fontColor=#000000;perimeterSpacing=1;" parent="pV6TMRa5KU2QEXjMv6IC-16" vertex="1">
          <mxGeometry x="105" width="105" height="30" as="geometry">
            <mxRectangle width="105" height="30" as="alternateBounds" />
          </mxGeometry>
        </mxCell>
        <mxCell id="pV6TMRa5KU2QEXjMv6IC-19" value="" style="shape=tableRow;horizontal=0;startSize=0;swimlaneHead=0;swimlaneBody=0;top=0;left=0;bottom=0;right=0;collapsible=0;dropTarget=0;fillColor=none;points=[[0,0.5],[1,0.5]];portConstraint=eastwest;strokeColor=inherit;fontSize=16;" parent="pV6TMRa5KU2QEXjMv6IC-3" vertex="1">
          <mxGeometry y="180" width="210" height="30" as="geometry" />
        </mxCell>
        <mxCell id="pV6TMRa5KU2QEXjMv6IC-20" value="ImageField" style="shape=partialRectangle;html=1;whiteSpace=wrap;connectable=0;fillColor=#f5f5f5;top=1;left=1;bottom=1;right=1;overflow=hidden;strokeColor=#000000;fontSize=15;fontColor=#000000;perimeterSpacing=1;" parent="pV6TMRa5KU2QEXjMv6IC-19" vertex="1">
          <mxGeometry width="105" height="30" as="geometry">
            <mxRectangle width="105" height="30" as="alternateBounds" />
          </mxGeometry>
        </mxCell>
        <mxCell id="pV6TMRa5KU2QEXjMv6IC-21" value="avatar" style="shape=partialRectangle;html=1;whiteSpace=wrap;connectable=0;fillColor=#f5f5f5;top=1;left=1;bottom=1;right=1;align=left;spacingLeft=6;overflow=hidden;strokeColor=#000000;fontSize=15;fontColor=#000000;perimeterSpacing=1;" parent="pV6TMRa5KU2QEXjMv6IC-19" vertex="1">
          <mxGeometry x="105" width="105" height="30" as="geometry">
            <mxRectangle width="105" height="30" as="alternateBounds" />
          </mxGeometry>
        </mxCell>
        <mxCell id="pV6TMRa5KU2QEXjMv6IC-22" value="" style="shape=tableRow;horizontal=0;startSize=0;swimlaneHead=0;swimlaneBody=0;top=0;left=0;bottom=0;right=0;collapsible=0;dropTarget=0;fillColor=none;points=[[0,0.5],[1,0.5]];portConstraint=eastwest;strokeColor=inherit;fontSize=16;" parent="pV6TMRa5KU2QEXjMv6IC-3" vertex="1">
          <mxGeometry y="210" width="210" height="30" as="geometry" />
        </mxCell>
        <mxCell id="pV6TMRa5KU2QEXjMv6IC-23" value="hash" style="shape=partialRectangle;html=1;whiteSpace=wrap;connectable=0;fillColor=#f5f5f5;top=1;left=1;bottom=1;right=1;overflow=hidden;strokeColor=#000000;fontSize=15;fontColor=#000000;perimeterSpacing=1;" parent="pV6TMRa5KU2QEXjMv6IC-22" vertex="1">
          <mxGeometry width="105" height="30" as="geometry">
            <mxRectangle width="105" height="30" as="alternateBounds" />
          </mxGeometry>
        </mxCell>
        <mxCell id="pV6TMRa5KU2QEXjMv6IC-24" value="password" style="shape=partialRectangle;html=1;whiteSpace=wrap;connectable=0;fillColor=#f5f5f5;top=1;left=1;bottom=1;right=1;align=left;spacingLeft=6;overflow=hidden;strokeColor=#000000;fontSize=15;fontColor=#000000;perimeterSpacing=1;" parent="pV6TMRa5KU2QEXjMv6IC-22" vertex="1">
          <mxGeometry x="105" width="105" height="30" as="geometry">
            <mxRectangle width="105" height="30" as="alternateBounds" />
          </mxGeometry>
        </mxCell>
        <mxCell id="pV6TMRa5KU2QEXjMv6IC-25" value="Company" style="shape=table;startSize=30;container=1;collapsible=0;childLayout=tableLayout;fixedRows=1;rowLines=1;fontStyle=1;strokeColor=#000000;fontSize=18;fillColor=#0050ef;fontColor=#ffffff;" parent="1" vertex="1">
          <mxGeometry x="430" y="570" width="210" height="240" as="geometry" />
        </mxCell>
        <mxCell id="pV6TMRa5KU2QEXjMv6IC-26" value="" style="shape=tableRow;horizontal=0;startSize=0;swimlaneHead=0;swimlaneBody=0;top=0;left=0;bottom=0;right=0;collapsible=0;dropTarget=0;fillColor=none;points=[[0,0.5],[1,0.5]];portConstraint=eastwest;strokeColor=inherit;fontSize=16;" parent="pV6TMRa5KU2QEXjMv6IC-25" vertex="1">
          <mxGeometry y="30" width="210" height="30" as="geometry" />
        </mxCell>
        <mxCell id="pV6TMRa5KU2QEXjMv6IC-27" value="&lt;font style=&quot;font-size: 15px;&quot;&gt;Primary Key&lt;/font&gt;" style="shape=partialRectangle;html=1;whiteSpace=wrap;connectable=0;fillColor=#f5f5f5;top=1;left=1;bottom=1;right=1;overflow=hidden;pointerEvents=1;strokeColor=#000000;fontSize=15;fontColor=#000000;perimeterSpacing=1;" parent="pV6TMRa5KU2QEXjMv6IC-26" vertex="1">
          <mxGeometry width="105" height="30" as="geometry">
            <mxRectangle width="105" height="30" as="alternateBounds" />
          </mxGeometry>
        </mxCell>
        <mxCell id="pV6TMRa5KU2QEXjMv6IC-28" value="id" style="shape=partialRectangle;html=1;whiteSpace=wrap;connectable=0;fillColor=#f5f5f5;top=1;left=1;bottom=1;right=1;align=left;spacingLeft=6;overflow=hidden;strokeColor=#000000;fontSize=15;fontColor=#000000;perimeterSpacing=1;" parent="pV6TMRa5KU2QEXjMv6IC-26" vertex="1">
          <mxGeometry x="105" width="105" height="30" as="geometry">
            <mxRectangle width="105" height="30" as="alternateBounds" />
          </mxGeometry>
        </mxCell>
        <mxCell id="pV6TMRa5KU2QEXjMv6IC-29" value="" style="shape=tableRow;horizontal=0;startSize=0;swimlaneHead=0;swimlaneBody=0;top=0;left=0;bottom=0;right=0;collapsible=0;dropTarget=0;fillColor=none;points=[[0,0.5],[1,0.5]];portConstraint=eastwest;strokeColor=inherit;fontSize=16;" parent="pV6TMRa5KU2QEXjMv6IC-25" vertex="1">
          <mxGeometry y="60" width="210" height="30" as="geometry" />
        </mxCell>
        <mxCell id="pV6TMRa5KU2QEXjMv6IC-30" value="&lt;font style=&quot;font-size: 15px;&quot;&gt;Many To Many&lt;br&gt;&lt;/font&gt;" style="shape=partialRectangle;html=1;whiteSpace=wrap;connectable=0;fillColor=#f5f5f5;top=1;left=1;bottom=1;right=1;overflow=hidden;pointerEvents=1;strokeColor=#000000;fontSize=15;fontColor=#000000;perimeterSpacing=1;" parent="pV6TMRa5KU2QEXjMv6IC-29" vertex="1">
          <mxGeometry width="105" height="30" as="geometry">
            <mxRectangle width="105" height="30" as="alternateBounds" />
          </mxGeometry>
        </mxCell>
        <mxCell id="pV6TMRa5KU2QEXjMv6IC-31" value="user" style="shape=partialRectangle;html=1;whiteSpace=wrap;connectable=0;fillColor=#f5f5f5;top=1;left=1;bottom=1;right=1;align=left;spacingLeft=6;overflow=hidden;strokeColor=#000000;fontSize=15;fontColor=#000000;perimeterSpacing=1;" parent="pV6TMRa5KU2QEXjMv6IC-29" vertex="1">
          <mxGeometry x="105" width="105" height="30" as="geometry">
            <mxRectangle width="105" height="30" as="alternateBounds" />
          </mxGeometry>
        </mxCell>
        <mxCell id="pV6TMRa5KU2QEXjMv6IC-32" value="" style="shape=tableRow;horizontal=0;startSize=0;swimlaneHead=0;swimlaneBody=0;top=0;left=0;bottom=0;right=0;collapsible=0;dropTarget=0;fillColor=none;points=[[0,0.5],[1,0.5]];portConstraint=eastwest;strokeColor=inherit;fontSize=16;" parent="pV6TMRa5KU2QEXjMv6IC-25" vertex="1">
          <mxGeometry y="90" width="210" height="30" as="geometry" />
        </mxCell>
        <mxCell id="pV6TMRa5KU2QEXjMv6IC-33" value="String" style="shape=partialRectangle;html=1;whiteSpace=wrap;connectable=0;fillColor=#f5f5f5;top=1;left=1;bottom=1;right=1;overflow=hidden;strokeColor=#000000;fontSize=15;fontColor=#000000;perimeterSpacing=1;" parent="pV6TMRa5KU2QEXjMv6IC-32" vertex="1">
          <mxGeometry width="105" height="30" as="geometry">
            <mxRectangle width="105" height="30" as="alternateBounds" />
          </mxGeometry>
        </mxCell>
        <mxCell id="pV6TMRa5KU2QEXjMv6IC-34" value="name" style="shape=partialRectangle;html=1;whiteSpace=wrap;connectable=0;fillColor=#f5f5f5;top=1;left=1;bottom=1;right=1;align=left;spacingLeft=6;overflow=hidden;strokeColor=#000000;fontSize=15;fontColor=#000000;perimeterSpacing=1;" parent="pV6TMRa5KU2QEXjMv6IC-32" vertex="1">
          <mxGeometry x="105" width="105" height="30" as="geometry">
            <mxRectangle width="105" height="30" as="alternateBounds" />
          </mxGeometry>
        </mxCell>
        <mxCell id="pV6TMRa5KU2QEXjMv6IC-35" value="" style="shape=tableRow;horizontal=0;startSize=0;swimlaneHead=0;swimlaneBody=0;top=0;left=0;bottom=0;right=0;collapsible=0;dropTarget=0;fillColor=none;points=[[0,0.5],[1,0.5]];portConstraint=eastwest;strokeColor=inherit;fontSize=16;" parent="pV6TMRa5KU2QEXjMv6IC-25" vertex="1">
          <mxGeometry y="120" width="210" height="30" as="geometry" />
        </mxCell>
        <mxCell id="pV6TMRa5KU2QEXjMv6IC-36" value="image" style="shape=partialRectangle;html=1;whiteSpace=wrap;connectable=0;fillColor=#f5f5f5;top=1;left=1;bottom=1;right=1;overflow=hidden;strokeColor=#000000;fontSize=15;fontColor=#000000;perimeterSpacing=1;" parent="pV6TMRa5KU2QEXjMv6IC-35" vertex="1">
          <mxGeometry width="105" height="30" as="geometry">
            <mxRectangle width="105" height="30" as="alternateBounds" />
          </mxGeometry>
        </mxCell>
        <mxCell id="pV6TMRa5KU2QEXjMv6IC-37" value="logo" style="shape=partialRectangle;html=1;whiteSpace=wrap;connectable=0;fillColor=#f5f5f5;top=1;left=1;bottom=1;right=1;align=left;spacingLeft=6;overflow=hidden;strokeColor=#000000;fontSize=15;fontColor=#000000;perimeterSpacing=1;" parent="pV6TMRa5KU2QEXjMv6IC-35" vertex="1">
          <mxGeometry x="105" width="105" height="30" as="geometry">
            <mxRectangle width="105" height="30" as="alternateBounds" />
          </mxGeometry>
        </mxCell>
        <mxCell id="pV6TMRa5KU2QEXjMv6IC-38" value="" style="shape=tableRow;horizontal=0;startSize=0;swimlaneHead=0;swimlaneBody=0;top=0;left=0;bottom=0;right=0;collapsible=0;dropTarget=0;fillColor=none;points=[[0,0.5],[1,0.5]];portConstraint=eastwest;strokeColor=inherit;fontSize=16;" parent="pV6TMRa5KU2QEXjMv6IC-25" vertex="1">
          <mxGeometry y="150" width="210" height="30" as="geometry" />
        </mxCell>
        <mxCell id="pV6TMRa5KU2QEXjMv6IC-39" value="String" style="shape=partialRectangle;html=1;whiteSpace=wrap;connectable=0;fillColor=#f5f5f5;top=1;left=1;bottom=1;right=1;overflow=hidden;strokeColor=#000000;fontSize=15;fontColor=#000000;perimeterSpacing=1;" parent="pV6TMRa5KU2QEXjMv6IC-38" vertex="1">
          <mxGeometry width="105" height="30" as="geometry">
            <mxRectangle width="105" height="30" as="alternateBounds" />
          </mxGeometry>
        </mxCell>
        <mxCell id="pV6TMRa5KU2QEXjMv6IC-40" value="slogan" style="shape=partialRectangle;html=1;whiteSpace=wrap;connectable=0;fillColor=#f5f5f5;top=1;left=1;bottom=1;right=1;align=left;spacingLeft=6;overflow=hidden;strokeColor=#000000;fontSize=15;fontColor=#000000;perimeterSpacing=1;" parent="pV6TMRa5KU2QEXjMv6IC-38" vertex="1">
          <mxGeometry x="105" width="105" height="30" as="geometry">
            <mxRectangle width="105" height="30" as="alternateBounds" />
          </mxGeometry>
        </mxCell>
        <mxCell id="pV6TMRa5KU2QEXjMv6IC-41" value="" style="shape=tableRow;horizontal=0;startSize=0;swimlaneHead=0;swimlaneBody=0;top=0;left=0;bottom=0;right=0;collapsible=0;dropTarget=0;fillColor=none;points=[[0,0.5],[1,0.5]];portConstraint=eastwest;strokeColor=inherit;fontSize=16;" parent="pV6TMRa5KU2QEXjMv6IC-25" vertex="1">
          <mxGeometry y="180" width="210" height="30" as="geometry" />
        </mxCell>
        <mxCell id="pV6TMRa5KU2QEXjMv6IC-42" value="Date" style="shape=partialRectangle;html=1;whiteSpace=wrap;connectable=0;fillColor=#f5f5f5;top=1;left=1;bottom=1;right=1;overflow=hidden;strokeColor=#000000;fontSize=15;fontColor=#000000;perimeterSpacing=1;" parent="pV6TMRa5KU2QEXjMv6IC-41" vertex="1">
          <mxGeometry width="105" height="30" as="geometry">
            <mxRectangle width="105" height="30" as="alternateBounds" />
          </mxGeometry>
        </mxCell>
        <mxCell id="pV6TMRa5KU2QEXjMv6IC-43" value="updated" style="shape=partialRectangle;html=1;whiteSpace=wrap;connectable=0;fillColor=#f5f5f5;top=1;left=1;bottom=1;right=1;align=left;spacingLeft=6;overflow=hidden;strokeColor=#000000;fontSize=15;fontColor=#000000;perimeterSpacing=1;" parent="pV6TMRa5KU2QEXjMv6IC-41" vertex="1">
          <mxGeometry x="105" width="105" height="30" as="geometry">
            <mxRectangle width="105" height="30" as="alternateBounds" />
          </mxGeometry>
        </mxCell>
        <mxCell id="pV6TMRa5KU2QEXjMv6IC-44" value="" style="shape=tableRow;horizontal=0;startSize=0;swimlaneHead=0;swimlaneBody=0;top=0;left=0;bottom=0;right=0;collapsible=0;dropTarget=0;fillColor=none;points=[[0,0.5],[1,0.5]];portConstraint=eastwest;strokeColor=inherit;fontSize=16;" parent="pV6TMRa5KU2QEXjMv6IC-25" vertex="1">
          <mxGeometry y="210" width="210" height="30" as="geometry" />
        </mxCell>
        <mxCell id="pV6TMRa5KU2QEXjMv6IC-45" value="Date" style="shape=partialRectangle;html=1;whiteSpace=wrap;connectable=0;fillColor=#f5f5f5;top=1;left=1;bottom=1;right=1;overflow=hidden;strokeColor=#000000;fontSize=15;fontColor=#000000;perimeterSpacing=1;" parent="pV6TMRa5KU2QEXjMv6IC-44" vertex="1">
          <mxGeometry width="105" height="30" as="geometry">
            <mxRectangle width="105" height="30" as="alternateBounds" />
          </mxGeometry>
        </mxCell>
        <mxCell id="pV6TMRa5KU2QEXjMv6IC-46" value="created" style="shape=partialRectangle;html=1;whiteSpace=wrap;connectable=0;fillColor=#f5f5f5;top=1;left=1;bottom=1;right=1;align=left;spacingLeft=6;overflow=hidden;strokeColor=#000000;fontSize=15;fontColor=#000000;perimeterSpacing=1;" parent="pV6TMRa5KU2QEXjMv6IC-44" vertex="1">
          <mxGeometry x="105" width="105" height="30" as="geometry">
            <mxRectangle width="105" height="30" as="alternateBounds" />
          </mxGeometry>
        </mxCell>
        <mxCell id="pV6TMRa5KU2QEXjMv6IC-47" value="Customer" style="shape=table;startSize=30;container=1;collapsible=0;childLayout=tableLayout;fixedRows=1;rowLines=1;fontStyle=1;strokeColor=#000000;fontSize=18;fillColor=#6a00ff;fontColor=#ffffff;" parent="1" vertex="1">
          <mxGeometry x="1180" y="590" width="210" height="150" as="geometry" />
        </mxCell>
        <mxCell id="pV6TMRa5KU2QEXjMv6IC-48" value="" style="shape=tableRow;horizontal=0;startSize=0;swimlaneHead=0;swimlaneBody=0;top=0;left=0;bottom=0;right=0;collapsible=0;dropTarget=0;fillColor=none;points=[[0,0.5],[1,0.5]];portConstraint=eastwest;strokeColor=inherit;fontSize=16;" parent="pV6TMRa5KU2QEXjMv6IC-47" vertex="1">
          <mxGeometry y="30" width="210" height="30" as="geometry" />
        </mxCell>
        <mxCell id="pV6TMRa5KU2QEXjMv6IC-49" value="&lt;font style=&quot;font-size: 15px;&quot;&gt;Primary Key&lt;/font&gt;" style="shape=partialRectangle;html=1;whiteSpace=wrap;connectable=0;fillColor=#f5f5f5;top=1;left=1;bottom=1;right=1;overflow=hidden;pointerEvents=1;strokeColor=#000000;fontSize=15;fontColor=#000000;perimeterSpacing=1;" parent="pV6TMRa5KU2QEXjMv6IC-48" vertex="1">
          <mxGeometry width="105" height="30" as="geometry">
            <mxRectangle width="105" height="30" as="alternateBounds" />
          </mxGeometry>
        </mxCell>
        <mxCell id="pV6TMRa5KU2QEXjMv6IC-50" value="id" style="shape=partialRectangle;html=1;whiteSpace=wrap;connectable=0;fillColor=#f5f5f5;top=1;left=1;bottom=1;right=1;align=left;spacingLeft=6;overflow=hidden;strokeColor=#000000;fontSize=15;fontColor=#000000;perimeterSpacing=1;" parent="pV6TMRa5KU2QEXjMv6IC-48" vertex="1">
          <mxGeometry x="105" width="105" height="30" as="geometry">
            <mxRectangle width="105" height="30" as="alternateBounds" />
          </mxGeometry>
        </mxCell>
        <mxCell id="pV6TMRa5KU2QEXjMv6IC-51" value="" style="shape=tableRow;horizontal=0;startSize=0;swimlaneHead=0;swimlaneBody=0;top=0;left=0;bottom=0;right=0;collapsible=0;dropTarget=0;fillColor=none;points=[[0,0.5],[1,0.5]];portConstraint=eastwest;strokeColor=inherit;fontSize=16;" parent="pV6TMRa5KU2QEXjMv6IC-47" vertex="1">
          <mxGeometry y="60" width="210" height="30" as="geometry" />
        </mxCell>
        <mxCell id="pV6TMRa5KU2QEXjMv6IC-52" value="&lt;font style=&quot;font-size: 15px;&quot;&gt;Foreign Key&lt;/font&gt;" style="shape=partialRectangle;html=1;whiteSpace=wrap;connectable=0;fillColor=#f5f5f5;top=1;left=1;bottom=1;right=1;overflow=hidden;pointerEvents=1;strokeColor=#000000;fontSize=15;fontColor=#000000;perimeterSpacing=1;" parent="pV6TMRa5KU2QEXjMv6IC-51" vertex="1">
          <mxGeometry width="105" height="30" as="geometry">
            <mxRectangle width="105" height="30" as="alternateBounds" />
          </mxGeometry>
        </mxCell>
        <mxCell id="pV6TMRa5KU2QEXjMv6IC-53" value="company" style="shape=partialRectangle;html=1;whiteSpace=wrap;connectable=0;fillColor=#f5f5f5;top=1;left=1;bottom=1;right=1;align=left;spacingLeft=6;overflow=hidden;strokeColor=#000000;fontSize=15;fontColor=#000000;perimeterSpacing=1;" parent="pV6TMRa5KU2QEXjMv6IC-51" vertex="1">
          <mxGeometry x="105" width="105" height="30" as="geometry">
            <mxRectangle width="105" height="30" as="alternateBounds" />
          </mxGeometry>
        </mxCell>
        <mxCell id="pV6TMRa5KU2QEXjMv6IC-54" value="" style="shape=tableRow;horizontal=0;startSize=0;swimlaneHead=0;swimlaneBody=0;top=0;left=0;bottom=0;right=0;collapsible=0;dropTarget=0;fillColor=none;points=[[0,0.5],[1,0.5]];portConstraint=eastwest;strokeColor=inherit;fontSize=16;" parent="pV6TMRa5KU2QEXjMv6IC-47" vertex="1">
          <mxGeometry y="90" width="210" height="30" as="geometry" />
        </mxCell>
        <mxCell id="pV6TMRa5KU2QEXjMv6IC-55" value="Date" style="shape=partialRectangle;html=1;whiteSpace=wrap;connectable=0;fillColor=#f5f5f5;top=1;left=1;bottom=1;right=1;overflow=hidden;strokeColor=#000000;fontSize=15;fontColor=#000000;perimeterSpacing=1;" parent="pV6TMRa5KU2QEXjMv6IC-54" vertex="1">
          <mxGeometry width="105" height="30" as="geometry">
            <mxRectangle width="105" height="30" as="alternateBounds" />
          </mxGeometry>
        </mxCell>
        <mxCell id="pV6TMRa5KU2QEXjMv6IC-56" value="updated" style="shape=partialRectangle;html=1;whiteSpace=wrap;connectable=0;fillColor=#f5f5f5;top=1;left=1;bottom=1;right=1;align=left;spacingLeft=6;overflow=hidden;strokeColor=#000000;fontSize=15;fontColor=#000000;perimeterSpacing=1;" parent="pV6TMRa5KU2QEXjMv6IC-54" vertex="1">
          <mxGeometry x="105" width="105" height="30" as="geometry">
            <mxRectangle width="105" height="30" as="alternateBounds" />
          </mxGeometry>
        </mxCell>
        <mxCell id="pV6TMRa5KU2QEXjMv6IC-57" value="" style="shape=tableRow;horizontal=0;startSize=0;swimlaneHead=0;swimlaneBody=0;top=0;left=0;bottom=0;right=0;collapsible=0;dropTarget=0;fillColor=none;points=[[0,0.5],[1,0.5]];portConstraint=eastwest;strokeColor=inherit;fontSize=16;" parent="pV6TMRa5KU2QEXjMv6IC-47" vertex="1">
          <mxGeometry y="120" width="210" height="30" as="geometry" />
        </mxCell>
        <mxCell id="pV6TMRa5KU2QEXjMv6IC-58" value="Date" style="shape=partialRectangle;html=1;whiteSpace=wrap;connectable=0;fillColor=#f5f5f5;top=1;left=1;bottom=1;right=1;overflow=hidden;strokeColor=#000000;fontSize=15;fontColor=#000000;perimeterSpacing=1;" parent="pV6TMRa5KU2QEXjMv6IC-57" vertex="1">
          <mxGeometry width="105" height="30" as="geometry">
            <mxRectangle width="105" height="30" as="alternateBounds" />
          </mxGeometry>
        </mxCell>
        <mxCell id="pV6TMRa5KU2QEXjMv6IC-59" value="created" style="shape=partialRectangle;html=1;whiteSpace=wrap;connectable=0;fillColor=#f5f5f5;top=1;left=1;bottom=1;right=1;align=left;spacingLeft=6;overflow=hidden;strokeColor=#000000;fontSize=15;fontColor=#000000;perimeterSpacing=1;" parent="pV6TMRa5KU2QEXjMv6IC-57" vertex="1">
          <mxGeometry x="105" width="105" height="30" as="geometry">
            <mxRectangle width="105" height="30" as="alternateBounds" />
          </mxGeometry>
        </mxCell>
        <mxCell id="pV6TMRa5KU2QEXjMv6IC-60" value="Product" style="shape=table;startSize=30;container=1;collapsible=0;childLayout=tableLayout;fixedRows=1;rowLines=1;fontStyle=1;strokeColor=#006EAF;fontSize=18;fillColor=#1ba1e2;fontColor=#ffffff;" parent="1" vertex="1">
          <mxGeometry x="1180" y="850" width="210" height="150" as="geometry" />
        </mxCell>
        <mxCell id="pV6TMRa5KU2QEXjMv6IC-61" value="" style="shape=tableRow;horizontal=0;startSize=0;swimlaneHead=0;swimlaneBody=0;top=0;left=0;bottom=0;right=0;collapsible=0;dropTarget=0;fillColor=none;points=[[0,0.5],[1,0.5]];portConstraint=eastwest;strokeColor=inherit;fontSize=16;" parent="pV6TMRa5KU2QEXjMv6IC-60" vertex="1">
          <mxGeometry y="30" width="210" height="30" as="geometry" />
        </mxCell>
        <mxCell id="pV6TMRa5KU2QEXjMv6IC-62" value="&lt;font style=&quot;font-size: 15px;&quot;&gt;Primary Key&lt;/font&gt;" style="shape=partialRectangle;html=1;whiteSpace=wrap;connectable=0;fillColor=#f5f5f5;top=1;left=1;bottom=1;right=1;overflow=hidden;pointerEvents=1;strokeColor=#000000;fontSize=15;fontColor=#000000;perimeterSpacing=1;" parent="pV6TMRa5KU2QEXjMv6IC-61" vertex="1">
          <mxGeometry width="105" height="30" as="geometry">
            <mxRectangle width="105" height="30" as="alternateBounds" />
          </mxGeometry>
        </mxCell>
        <mxCell id="pV6TMRa5KU2QEXjMv6IC-63" value="id" style="shape=partialRectangle;html=1;whiteSpace=wrap;connectable=0;fillColor=#f5f5f5;top=1;left=1;bottom=1;right=1;align=left;spacingLeft=6;overflow=hidden;strokeColor=#000000;fontSize=15;fontColor=#000000;perimeterSpacing=1;" parent="pV6TMRa5KU2QEXjMv6IC-61" vertex="1">
          <mxGeometry x="105" width="105" height="30" as="geometry">
            <mxRectangle width="105" height="30" as="alternateBounds" />
          </mxGeometry>
        </mxCell>
        <mxCell id="pV6TMRa5KU2QEXjMv6IC-64" value="" style="shape=tableRow;horizontal=0;startSize=0;swimlaneHead=0;swimlaneBody=0;top=0;left=0;bottom=0;right=0;collapsible=0;dropTarget=0;fillColor=none;points=[[0,0.5],[1,0.5]];portConstraint=eastwest;strokeColor=inherit;fontSize=16;" parent="pV6TMRa5KU2QEXjMv6IC-60" vertex="1">
          <mxGeometry y="60" width="210" height="30" as="geometry" />
        </mxCell>
        <mxCell id="pV6TMRa5KU2QEXjMv6IC-65" value="Foreign Key" style="shape=partialRectangle;html=1;whiteSpace=wrap;connectable=0;fillColor=#f5f5f5;top=1;left=1;bottom=1;right=1;overflow=hidden;strokeColor=#000000;fontSize=15;fontColor=#000000;perimeterSpacing=1;" parent="pV6TMRa5KU2QEXjMv6IC-64" vertex="1">
          <mxGeometry width="105" height="30" as="geometry">
            <mxRectangle width="105" height="30" as="alternateBounds" />
          </mxGeometry>
        </mxCell>
        <mxCell id="pV6TMRa5KU2QEXjMv6IC-66" value="company" style="shape=partialRectangle;html=1;whiteSpace=wrap;connectable=0;fillColor=#f5f5f5;top=1;left=1;bottom=1;right=1;align=left;spacingLeft=6;overflow=hidden;strokeColor=#000000;fontSize=15;fontColor=#000000;perimeterSpacing=1;" parent="pV6TMRa5KU2QEXjMv6IC-64" vertex="1">
          <mxGeometry x="105" width="105" height="30" as="geometry">
            <mxRectangle width="105" height="30" as="alternateBounds" />
          </mxGeometry>
        </mxCell>
        <mxCell id="pV6TMRa5KU2QEXjMv6IC-67" value="" style="shape=tableRow;horizontal=0;startSize=0;swimlaneHead=0;swimlaneBody=0;top=0;left=0;bottom=0;right=0;collapsible=0;dropTarget=0;fillColor=none;points=[[0,0.5],[1,0.5]];portConstraint=eastwest;strokeColor=inherit;fontSize=16;" parent="pV6TMRa5KU2QEXjMv6IC-60" vertex="1">
          <mxGeometry y="90" width="210" height="30" as="geometry" />
        </mxCell>
        <mxCell id="pV6TMRa5KU2QEXjMv6IC-68" value="Date" style="shape=partialRectangle;html=1;whiteSpace=wrap;connectable=0;fillColor=#f5f5f5;top=1;left=1;bottom=1;right=1;overflow=hidden;strokeColor=#000000;fontSize=15;fontColor=#000000;perimeterSpacing=1;" parent="pV6TMRa5KU2QEXjMv6IC-67" vertex="1">
          <mxGeometry width="105" height="30" as="geometry">
            <mxRectangle width="105" height="30" as="alternateBounds" />
          </mxGeometry>
        </mxCell>
        <mxCell id="pV6TMRa5KU2QEXjMv6IC-69" value="updated" style="shape=partialRectangle;html=1;whiteSpace=wrap;connectable=0;fillColor=#f5f5f5;top=1;left=1;bottom=1;right=1;align=left;spacingLeft=6;overflow=hidden;strokeColor=#000000;fontSize=15;fontColor=#000000;perimeterSpacing=1;" parent="pV6TMRa5KU2QEXjMv6IC-67" vertex="1">
          <mxGeometry x="105" width="105" height="30" as="geometry">
            <mxRectangle width="105" height="30" as="alternateBounds" />
          </mxGeometry>
        </mxCell>
        <mxCell id="pV6TMRa5KU2QEXjMv6IC-70" value="" style="shape=tableRow;horizontal=0;startSize=0;swimlaneHead=0;swimlaneBody=0;top=0;left=0;bottom=0;right=0;collapsible=0;dropTarget=0;fillColor=none;points=[[0,0.5],[1,0.5]];portConstraint=eastwest;strokeColor=inherit;fontSize=16;" parent="pV6TMRa5KU2QEXjMv6IC-60" vertex="1">
          <mxGeometry y="120" width="210" height="30" as="geometry" />
        </mxCell>
        <mxCell id="pV6TMRa5KU2QEXjMv6IC-71" value="Date" style="shape=partialRectangle;html=1;whiteSpace=wrap;connectable=0;fillColor=#f5f5f5;top=1;left=1;bottom=1;right=1;overflow=hidden;strokeColor=#000000;fontSize=15;fontColor=#000000;perimeterSpacing=1;" parent="pV6TMRa5KU2QEXjMv6IC-70" vertex="1">
          <mxGeometry width="105" height="30" as="geometry">
            <mxRectangle width="105" height="30" as="alternateBounds" />
          </mxGeometry>
        </mxCell>
        <mxCell id="pV6TMRa5KU2QEXjMv6IC-72" value="created" style="shape=partialRectangle;html=1;whiteSpace=wrap;connectable=0;fillColor=#f5f5f5;top=1;left=1;bottom=1;right=1;align=left;spacingLeft=6;overflow=hidden;strokeColor=#000000;fontSize=15;fontColor=#000000;perimeterSpacing=1;" parent="pV6TMRa5KU2QEXjMv6IC-70" vertex="1">
          <mxGeometry x="105" width="105" height="30" as="geometry">
            <mxRectangle width="105" height="30" as="alternateBounds" />
          </mxGeometry>
        </mxCell>
        <mxCell id="pV6TMRa5KU2QEXjMv6IC-73" style="edgeStyle=none;rounded=1;orthogonalLoop=1;jettySize=auto;html=1;fontSize=12;startSize=8;endSize=8;entryX=1.021;entryY=0.307;entryDx=0;entryDy=0;entryPerimeter=0;endArrow=ERone;endFill=0;startArrow=ERmany;startFill=0;strokeWidth=2;" parent="1" source="pV6TMRa5KU2QEXjMv6IC-64" target="pV6TMRa5KU2QEXjMv6IC-44" edge="1">
          <mxGeometry relative="1" as="geometry">
            <mxPoint x="740" y="800" as="targetPoint" />
            <Array as="points">
              <mxPoint x="740" y="925" />
              <mxPoint x="740" y="789" />
            </Array>
          </mxGeometry>
        </mxCell>
        <mxCell id="pV6TMRa5KU2QEXjMv6IC-74" value="Supplier" style="shape=table;startSize=30;container=1;collapsible=0;childLayout=tableLayout;fixedRows=1;rowLines=1;fontStyle=1;strokeColor=#000000;fontSize=18;fillColor=#6a00ff;fontColor=#ffffff;" parent="1" vertex="1">
          <mxGeometry x="1180" y="330" width="210" height="150" as="geometry" />
        </mxCell>
        <mxCell id="pV6TMRa5KU2QEXjMv6IC-75" value="" style="shape=tableRow;horizontal=0;startSize=0;swimlaneHead=0;swimlaneBody=0;top=0;left=0;bottom=0;right=0;collapsible=0;dropTarget=0;fillColor=none;points=[[0,0.5],[1,0.5]];portConstraint=eastwest;strokeColor=inherit;fontSize=16;" parent="pV6TMRa5KU2QEXjMv6IC-74" vertex="1">
          <mxGeometry y="30" width="210" height="30" as="geometry" />
        </mxCell>
        <mxCell id="pV6TMRa5KU2QEXjMv6IC-76" value="&lt;font style=&quot;font-size: 15px;&quot;&gt;Primary Key&lt;/font&gt;" style="shape=partialRectangle;html=1;whiteSpace=wrap;connectable=0;fillColor=#f5f5f5;top=1;left=1;bottom=1;right=1;overflow=hidden;pointerEvents=1;strokeColor=#000000;fontSize=15;fontColor=#000000;perimeterSpacing=1;" parent="pV6TMRa5KU2QEXjMv6IC-75" vertex="1">
          <mxGeometry width="105" height="30" as="geometry">
            <mxRectangle width="105" height="30" as="alternateBounds" />
          </mxGeometry>
        </mxCell>
        <mxCell id="pV6TMRa5KU2QEXjMv6IC-77" value="id" style="shape=partialRectangle;html=1;whiteSpace=wrap;connectable=0;fillColor=#f5f5f5;top=1;left=1;bottom=1;right=1;align=left;spacingLeft=6;overflow=hidden;strokeColor=#000000;fontSize=15;fontColor=#000000;perimeterSpacing=1;" parent="pV6TMRa5KU2QEXjMv6IC-75" vertex="1">
          <mxGeometry x="105" width="105" height="30" as="geometry">
            <mxRectangle width="105" height="30" as="alternateBounds" />
          </mxGeometry>
        </mxCell>
        <mxCell id="pV6TMRa5KU2QEXjMv6IC-78" value="" style="shape=tableRow;horizontal=0;startSize=0;swimlaneHead=0;swimlaneBody=0;top=0;left=0;bottom=0;right=0;collapsible=0;dropTarget=0;fillColor=none;points=[[0,0.5],[1,0.5]];portConstraint=eastwest;strokeColor=inherit;fontSize=16;" parent="pV6TMRa5KU2QEXjMv6IC-74" vertex="1">
          <mxGeometry y="60" width="210" height="30" as="geometry" />
        </mxCell>
        <mxCell id="pV6TMRa5KU2QEXjMv6IC-79" value="&lt;font style=&quot;font-size: 15px;&quot;&gt;Foreign Key&lt;/font&gt;" style="shape=partialRectangle;html=1;whiteSpace=wrap;connectable=0;fillColor=#f5f5f5;top=1;left=1;bottom=1;right=1;overflow=hidden;pointerEvents=1;strokeColor=#000000;fontSize=15;fontColor=#000000;perimeterSpacing=1;" parent="pV6TMRa5KU2QEXjMv6IC-78" vertex="1">
          <mxGeometry width="105" height="30" as="geometry">
            <mxRectangle width="105" height="30" as="alternateBounds" />
          </mxGeometry>
        </mxCell>
        <mxCell id="pV6TMRa5KU2QEXjMv6IC-80" value="company" style="shape=partialRectangle;html=1;whiteSpace=wrap;connectable=0;fillColor=#f5f5f5;top=1;left=1;bottom=1;right=1;align=left;spacingLeft=6;overflow=hidden;strokeColor=#000000;fontSize=15;fontColor=#000000;perimeterSpacing=1;" parent="pV6TMRa5KU2QEXjMv6IC-78" vertex="1">
          <mxGeometry x="105" width="105" height="30" as="geometry">
            <mxRectangle width="105" height="30" as="alternateBounds" />
          </mxGeometry>
        </mxCell>
        <mxCell id="pV6TMRa5KU2QEXjMv6IC-81" value="" style="shape=tableRow;horizontal=0;startSize=0;swimlaneHead=0;swimlaneBody=0;top=0;left=0;bottom=0;right=0;collapsible=0;dropTarget=0;fillColor=none;points=[[0,0.5],[1,0.5]];portConstraint=eastwest;strokeColor=inherit;fontSize=16;" parent="pV6TMRa5KU2QEXjMv6IC-74" vertex="1">
          <mxGeometry y="90" width="210" height="30" as="geometry" />
        </mxCell>
        <mxCell id="pV6TMRa5KU2QEXjMv6IC-82" value="Date" style="shape=partialRectangle;html=1;whiteSpace=wrap;connectable=0;fillColor=#f5f5f5;top=1;left=1;bottom=1;right=1;overflow=hidden;strokeColor=#000000;fontSize=15;fontColor=#000000;perimeterSpacing=1;" parent="pV6TMRa5KU2QEXjMv6IC-81" vertex="1">
          <mxGeometry width="105" height="30" as="geometry">
            <mxRectangle width="105" height="30" as="alternateBounds" />
          </mxGeometry>
        </mxCell>
        <mxCell id="pV6TMRa5KU2QEXjMv6IC-83" value="updated" style="shape=partialRectangle;html=1;whiteSpace=wrap;connectable=0;fillColor=#f5f5f5;top=1;left=1;bottom=1;right=1;align=left;spacingLeft=6;overflow=hidden;strokeColor=#000000;fontSize=15;fontColor=#000000;perimeterSpacing=1;" parent="pV6TMRa5KU2QEXjMv6IC-81" vertex="1">
          <mxGeometry x="105" width="105" height="30" as="geometry">
            <mxRectangle width="105" height="30" as="alternateBounds" />
          </mxGeometry>
        </mxCell>
        <mxCell id="pV6TMRa5KU2QEXjMv6IC-84" value="" style="shape=tableRow;horizontal=0;startSize=0;swimlaneHead=0;swimlaneBody=0;top=0;left=0;bottom=0;right=0;collapsible=0;dropTarget=0;fillColor=none;points=[[0,0.5],[1,0.5]];portConstraint=eastwest;strokeColor=inherit;fontSize=16;" parent="pV6TMRa5KU2QEXjMv6IC-74" vertex="1">
          <mxGeometry y="120" width="210" height="30" as="geometry" />
        </mxCell>
        <mxCell id="pV6TMRa5KU2QEXjMv6IC-85" value="Date" style="shape=partialRectangle;html=1;whiteSpace=wrap;connectable=0;fillColor=#f5f5f5;top=1;left=1;bottom=1;right=1;overflow=hidden;strokeColor=#000000;fontSize=15;fontColor=#000000;perimeterSpacing=1;" parent="pV6TMRa5KU2QEXjMv6IC-84" vertex="1">
          <mxGeometry width="105" height="30" as="geometry">
            <mxRectangle width="105" height="30" as="alternateBounds" />
          </mxGeometry>
        </mxCell>
        <mxCell id="pV6TMRa5KU2QEXjMv6IC-86" value="created" style="shape=partialRectangle;html=1;whiteSpace=wrap;connectable=0;fillColor=#f5f5f5;top=1;left=1;bottom=1;right=1;align=left;spacingLeft=6;overflow=hidden;strokeColor=#000000;fontSize=15;fontColor=#000000;perimeterSpacing=1;" parent="pV6TMRa5KU2QEXjMv6IC-84" vertex="1">
          <mxGeometry x="105" width="105" height="30" as="geometry">
            <mxRectangle width="105" height="30" as="alternateBounds" />
          </mxGeometry>
        </mxCell>
        <mxCell id="pV6TMRa5KU2QEXjMv6IC-87" style="edgeStyle=none;rounded=1;orthogonalLoop=1;jettySize=auto;html=1;fontSize=12;startSize=8;endSize=8;endArrow=ERone;endFill=0;startArrow=ERmany;startFill=0;entryX=0.945;entryY=0.001;entryDx=0;entryDy=0;entryPerimeter=0;strokeWidth=2;exitX=0.009;exitY=0.66;exitDx=0;exitDy=0;exitPerimeter=0;" parent="1" source="pV6TMRa5KU2QEXjMv6IC-78" edge="1">
          <mxGeometry relative="1" as="geometry">
            <mxPoint x="628.45" y="570.2399999999999" as="targetPoint" />
            <mxPoint x="1141" y="647.8225806451612" as="sourcePoint" />
            <Array as="points">
              <mxPoint x="1140" y="410" />
              <mxPoint x="1140" y="550" />
              <mxPoint x="630" y="550" />
            </Array>
          </mxGeometry>
        </mxCell>
        <mxCell id="pV6TMRa5KU2QEXjMv6IC-88" value="Employee" style="shape=table;startSize=30;container=1;collapsible=0;childLayout=tableLayout;fixedRows=1;rowLines=1;fontStyle=1;strokeColor=#000000;fontSize=18;fillColor=#6a00ff;fontColor=#ffffff;" parent="1" vertex="1">
          <mxGeometry x="1180" y="60" width="210" height="150" as="geometry" />
        </mxCell>
        <mxCell id="pV6TMRa5KU2QEXjMv6IC-89" value="" style="shape=tableRow;horizontal=0;startSize=0;swimlaneHead=0;swimlaneBody=0;top=0;left=0;bottom=0;right=0;collapsible=0;dropTarget=0;fillColor=none;points=[[0,0.5],[1,0.5]];portConstraint=eastwest;strokeColor=inherit;fontSize=16;" parent="pV6TMRa5KU2QEXjMv6IC-88" vertex="1">
          <mxGeometry y="30" width="210" height="30" as="geometry" />
        </mxCell>
        <mxCell id="pV6TMRa5KU2QEXjMv6IC-90" value="&lt;font style=&quot;font-size: 15px;&quot;&gt;Primary Key&lt;/font&gt;" style="shape=partialRectangle;html=1;whiteSpace=wrap;connectable=0;fillColor=#f5f5f5;top=1;left=1;bottom=1;right=1;overflow=hidden;pointerEvents=1;strokeColor=#000000;fontSize=15;fontColor=#000000;perimeterSpacing=1;" parent="pV6TMRa5KU2QEXjMv6IC-89" vertex="1">
          <mxGeometry width="105" height="30" as="geometry">
            <mxRectangle width="105" height="30" as="alternateBounds" />
          </mxGeometry>
        </mxCell>
        <mxCell id="pV6TMRa5KU2QEXjMv6IC-91" value="id" style="shape=partialRectangle;html=1;whiteSpace=wrap;connectable=0;fillColor=#f5f5f5;top=1;left=1;bottom=1;right=1;align=left;spacingLeft=6;overflow=hidden;strokeColor=#000000;fontSize=15;fontColor=#000000;perimeterSpacing=1;" parent="pV6TMRa5KU2QEXjMv6IC-89" vertex="1">
          <mxGeometry x="105" width="105" height="30" as="geometry">
            <mxRectangle width="105" height="30" as="alternateBounds" />
          </mxGeometry>
        </mxCell>
        <mxCell id="pV6TMRa5KU2QEXjMv6IC-92" value="" style="shape=tableRow;horizontal=0;startSize=0;swimlaneHead=0;swimlaneBody=0;top=0;left=0;bottom=0;right=0;collapsible=0;dropTarget=0;fillColor=none;points=[[0,0.5],[1,0.5]];portConstraint=eastwest;strokeColor=inherit;fontSize=16;" parent="pV6TMRa5KU2QEXjMv6IC-88" vertex="1">
          <mxGeometry y="60" width="210" height="30" as="geometry" />
        </mxCell>
        <mxCell id="pV6TMRa5KU2QEXjMv6IC-93" value="&lt;font style=&quot;font-size: 15px;&quot;&gt;Foreign Key&lt;/font&gt;" style="shape=partialRectangle;html=1;whiteSpace=wrap;connectable=0;fillColor=#f5f5f5;top=1;left=1;bottom=1;right=1;overflow=hidden;pointerEvents=1;strokeColor=#000000;fontSize=15;fontColor=#000000;perimeterSpacing=1;" parent="pV6TMRa5KU2QEXjMv6IC-92" vertex="1">
          <mxGeometry width="105" height="30" as="geometry">
            <mxRectangle width="105" height="30" as="alternateBounds" />
          </mxGeometry>
        </mxCell>
        <mxCell id="pV6TMRa5KU2QEXjMv6IC-94" value="company" style="shape=partialRectangle;html=1;whiteSpace=wrap;connectable=0;fillColor=#f5f5f5;top=1;left=1;bottom=1;right=1;align=left;spacingLeft=6;overflow=hidden;strokeColor=#000000;fontSize=15;fontColor=#000000;perimeterSpacing=1;" parent="pV6TMRa5KU2QEXjMv6IC-92" vertex="1">
          <mxGeometry x="105" width="105" height="30" as="geometry">
            <mxRectangle width="105" height="30" as="alternateBounds" />
          </mxGeometry>
        </mxCell>
        <mxCell id="pV6TMRa5KU2QEXjMv6IC-95" value="" style="shape=tableRow;horizontal=0;startSize=0;swimlaneHead=0;swimlaneBody=0;top=0;left=0;bottom=0;right=0;collapsible=0;dropTarget=0;fillColor=none;points=[[0,0.5],[1,0.5]];portConstraint=eastwest;strokeColor=inherit;fontSize=16;" parent="pV6TMRa5KU2QEXjMv6IC-88" vertex="1">
          <mxGeometry y="90" width="210" height="30" as="geometry" />
        </mxCell>
        <mxCell id="pV6TMRa5KU2QEXjMv6IC-96" value="Date" style="shape=partialRectangle;html=1;whiteSpace=wrap;connectable=0;fillColor=#f5f5f5;top=1;left=1;bottom=1;right=1;overflow=hidden;strokeColor=#000000;fontSize=15;fontColor=#000000;perimeterSpacing=1;" parent="pV6TMRa5KU2QEXjMv6IC-95" vertex="1">
          <mxGeometry width="105" height="30" as="geometry">
            <mxRectangle width="105" height="30" as="alternateBounds" />
          </mxGeometry>
        </mxCell>
        <mxCell id="pV6TMRa5KU2QEXjMv6IC-97" value="updated" style="shape=partialRectangle;html=1;whiteSpace=wrap;connectable=0;fillColor=#f5f5f5;top=1;left=1;bottom=1;right=1;align=left;spacingLeft=6;overflow=hidden;strokeColor=#000000;fontSize=15;fontColor=#000000;perimeterSpacing=1;" parent="pV6TMRa5KU2QEXjMv6IC-95" vertex="1">
          <mxGeometry x="105" width="105" height="30" as="geometry">
            <mxRectangle width="105" height="30" as="alternateBounds" />
          </mxGeometry>
        </mxCell>
        <mxCell id="pV6TMRa5KU2QEXjMv6IC-98" value="" style="shape=tableRow;horizontal=0;startSize=0;swimlaneHead=0;swimlaneBody=0;top=0;left=0;bottom=0;right=0;collapsible=0;dropTarget=0;fillColor=none;points=[[0,0.5],[1,0.5]];portConstraint=eastwest;strokeColor=inherit;fontSize=16;" parent="pV6TMRa5KU2QEXjMv6IC-88" vertex="1">
          <mxGeometry y="120" width="210" height="30" as="geometry" />
        </mxCell>
        <mxCell id="pV6TMRa5KU2QEXjMv6IC-99" value="Date" style="shape=partialRectangle;html=1;whiteSpace=wrap;connectable=0;fillColor=#f5f5f5;top=1;left=1;bottom=1;right=1;overflow=hidden;strokeColor=#000000;fontSize=15;fontColor=#000000;perimeterSpacing=1;" parent="pV6TMRa5KU2QEXjMv6IC-98" vertex="1">
          <mxGeometry width="105" height="30" as="geometry">
            <mxRectangle width="105" height="30" as="alternateBounds" />
          </mxGeometry>
        </mxCell>
        <mxCell id="pV6TMRa5KU2QEXjMv6IC-100" value="created" style="shape=partialRectangle;html=1;whiteSpace=wrap;connectable=0;fillColor=#f5f5f5;top=1;left=1;bottom=1;right=1;align=left;spacingLeft=6;overflow=hidden;strokeColor=#000000;fontSize=15;fontColor=#000000;perimeterSpacing=1;" parent="pV6TMRa5KU2QEXjMv6IC-98" vertex="1">
          <mxGeometry x="105" width="105" height="30" as="geometry">
            <mxRectangle width="105" height="30" as="alternateBounds" />
          </mxGeometry>
        </mxCell>
        <mxCell id="pV6TMRa5KU2QEXjMv6IC-101" style="edgeStyle=none;rounded=1;orthogonalLoop=1;jettySize=auto;html=1;fontSize=12;startSize=8;endSize=8;strokeWidth=2;entryX=1;entryY=0.5;entryDx=0;entryDy=0;endArrow=ERone;endFill=0;startArrow=ERmany;startFill=0;" parent="1" source="pV6TMRa5KU2QEXjMv6IC-92" target="pV6TMRa5KU2QEXjMv6IC-29" edge="1">
          <mxGeometry relative="1" as="geometry">
            <mxPoint x="1050" y="730" as="targetPoint" />
            <Array as="points">
              <mxPoint x="740" y="135" />
              <mxPoint x="740" y="645" />
            </Array>
          </mxGeometry>
        </mxCell>
      </root>
    </mxGraphModel>
  </diagram>
  <diagram name="UseCase" id="lvu75xMq8ij5X5jVsj1r">
    <mxGraphModel dx="1622" dy="1025" grid="1" gridSize="10" guides="1" tooltips="1" connect="1" arrows="1" fold="1" page="1" pageScale="1" pageWidth="1100" pageHeight="850" math="0" shadow="0">
      <root>
        <mxCell id="AfRd1UmsRq6_t1hSFUuP-0" />
        <mxCell id="AfRd1UmsRq6_t1hSFUuP-1" parent="AfRd1UmsRq6_t1hSFUuP-0" />
      </root>
    </mxGraphModel>
  </diagram>
</mxfile>
